<?xml version="1.0" encoding="UTF-8" standalone="no"?>
<svg width="640" xmlns="http://www.w3.org/2000/svg" xmlns:xlink="http://www.w3.org/1999/xlink" height="480">
 <defs>
  <linearGradient id="linearGradient1946" y2=".10577" xlink:href="#linearGradient2645" x2=".5673" y1=".10577" x1=".11538"/>
  <linearGradient id="linearGradient2167" y2=".67466" xlink:href="#linearGradient2353" spreadMethod="reflect" x2=".59681" y1=".67466" x1=".04965"/>
  <linearGradient id="linearGradient1936" xlink:href="#linearGradient2353" x2=".5" x1=".5"/>
  <linearGradient id="linearGradient2161" y2="1.3924" spreadMethod="reflect" x2="2.4078" gradientTransform="matrix(.24090 0 0 .31488 163.43 211.84)" y1="1.3924" x1=".61893">
   <stop id="stop2433" stop-color="#c6c6c6" offset="0"/>
   <stop id="stop2439" stop-color="#696969" offset=".13501"/>
   <stop id="stop2441" stop-color="#f9f9f9" offset=".64724"/>
   <stop id="stop2435" stop-color="#bcbcbc" offset="1"/>
  </linearGradient>
  <linearGradient id="linearGradient2159" y2="1.3924" xlink:href="#linearGradient2345" spreadMethod="reflect" x2="3.3949" gradientTransform="matrix(.24090 0 0 .31488 163.43 211.84)" y1="1.3924" x1="1.0242"/>
  <linearGradient id="linearGradient2153" y2=".07129" xlink:href="#linearGradient2353" spreadMethod="reflect" x2=".50663" y1=".07129" x1=".50663"/>
  <linearGradient id="linearGradient2353">
   <stop id="stop2355" stop-color="#fff" offset="0"/>
   <stop id="stop2357" stop-color="#fff" stop-opacity="0" offset="1"/>
  </linearGradient>
  <linearGradient id="linearGradient2345">
   <stop id="stop2347" stop-color="#b8b8b8" offset="0"/>
   <stop id="stop2349" stop-color="#f1f1f1" offset="1"/>
  </linearGradient>
  <linearGradient id="linearGradient2778">
   <stop id="stop2780" offset="0"/>
   <stop id="stop2782" stop-opacity="0" offset="1"/>
  </linearGradient>
  <linearGradient id="linearGradient2645">
   <stop id="stop2647" stop-color="#848484" offset="0"/>
   <stop id="stop2649" stop-color="#fcfcfc" offset="1"/>
  </linearGradient>
  <linearGradient id="linearGradient2517">
   <stop id="stop2519" stop-opacity="0" offset="0"/>
   <stop id="stop2525" stop-opacity="0" offset=".5"/>
   <stop id="stop2521" offset="1"/>
  </linearGradient>
  <linearGradient id="linearGradient1926" y2=".36388" xlink:href="#linearGradient2345" spreadMethod="reflect" x2=".52767" gradientTransform="matrix(.91939 0 0 .97193 12.049 44.869)" y1=".36388" x1="-.01616"/>
  <radialGradient id="radialGradient1808" xlink:href="#linearGradient2778" gradientUnits="userSpaceOnUse" cy="424" cx="262" gradientTransform="matrix(.60264 0 0 .22332 98.107 293.11)" r="246"/>
  <radialGradient id="radialGradient1932" xlink:href="#linearGradient2645" spreadMethod="reflect" gradientUnits="userSpaceOnUse" cy="333.87" cx="415.1" gradientTransform="matrix(0 -.83911 .78670 8.6217e-13 129.42 668.44)" r="5.95"/>
  <radialGradient id="radialGradient2155" fy="506.3" gradientUnits="userSpaceOnUse" cy="557.6" cx="384.3" gradientTransform="matrix(.26587 0 0 .40958 153.83 163.04)" r="102.42">
   <stop id="stop2447" stop-color="#6c6c6c" offset="0"/>
   <stop id="stop2449" stop-color="#6c6c6c" stop-opacity="0" offset="1"/>
  </radialGradient>
  <radialGradient id="radialGradient2157" xlink:href="#linearGradient2778" gradientUnits="userSpaceOnUse" cy="424" cx="262" gradientTransform="matrix(.27496 0 0 .054025 183.96 351.16)" r="246"/>
  <radialGradient id="radialGradient2163" fy="399.28" xlink:href="#linearGradient2517" gradientUnits="userSpaceOnUse" cy="405.73" cx="265.17" gradientTransform="matrix(.85179 0 1.1987e-13 3.6749 30.137 -1100.9)" r="37.272"/>
  <radialGradient id="radialGradient2165" fy="391.53" xlink:href="#linearGradient2517" gradientUnits="userSpaceOnUse" cy="410.06" cx="264.2" gradientTransform="matrix(1.5558 -4.5858e-7 0 1.7404 -155.05 -310.77)" r="37.272"/>
  <radialGradient id="radialGradient1930" xlink:href="#linearGradient2345" spreadMethod="reflect" gradientUnits="userSpaceOnUse" cy="213.94" cx="264.7" gradientTransform="matrix(.49433 9.5717e-33 0 .37565 133.85 133.57)" r="166.14"/>
  <radialGradient id="radialGradient2151" fy="403.91" xlink:href="#linearGradient2345" spreadMethod="reflect" gradientUnits="userSpaceOnUse" cy="543.09" cx="389.17" gradientTransform="matrix(.23779 -2.4906e-7 1.9538e-7 .074058 165.4 369.17)" r="315.71"/>
  <radialGradient id="radialGradient2149" xlink:href="#linearGradient2517" spreadMethod="reflect" gradientUnits="userSpaceOnUse" cy="884.12" cx="391.97" gradientTransform="matrix(.0036205 .21626 -.30002 .010196 523.98 337.9)" r="315.71"/>
  <radialGradient id="radialGradient1810" xlink:href="#linearGradient2778" gradientUnits="userSpaceOnUse" cy="424" cx="262" gradientTransform="matrix(.47138 0 0 .19922 132.5 316.37)" r="246"/>
  <radialGradient id="radialGradient1944" xlink:href="#linearGradient2645" spreadMethod="reflect" gradientUnits="userSpaceOnUse" cy="333.87" cx="415.1" gradientTransform="matrix(0 -.50119 .46989 5.1496e-13 211.04 534.14)" r="5.95"/>
  <radialGradient id="radialGradient1938" xlink:href="#linearGradient2645" spreadMethod="reflect" gradientUnits="userSpaceOnUse" cy="333.87" cx="415.1" gradientTransform="matrix(0 -.50119 .46989 5.1496e-13 223.07 534.14)" r="5.95"/>
  <radialGradient id="radialGradient1950" xlink:href="#linearGradient2645" spreadMethod="reflect" gradientUnits="userSpaceOnUse" cy="333.87" cx="415.1" gradientTransform="matrix(0 -.50119 .46989 5.1496e-13 199.01 534.14)" r="5.95"/>
  <radialGradient id="radialGradient1812" xlink:href="#linearGradient2778" gradientUnits="userSpaceOnUse" cy="424" cx="262" gradientTransform="matrix(.76375 0 0 .18590 55.898 312.53)" r="246"/>
  <radialGradient id="radialGradient2147" fy="771.21" xlink:href="#linearGradient2345" spreadMethod="reflect" gradientUnits="userSpaceOnUse" cy="771.2" cx="291.24" gradientTransform="matrix(.12815 .0028072 -1.9759e-8 .16733 218.68 307.22)" r="315.71"/>
  <radialGradient id="radialGradient1928" gradientUnits="userSpaceOnUse" cy="414.29" cx="372.46" gradientTransform="matrix(2.3806 -.32539 .085866 .62822 -591.31 153.31)" r="166.14">
   <stop id="stop2760" stop-color="#0157bf" offset="0"/>
   <stop id="stop2762" stop-color="#013a81" offset="1"/>
  </radialGradient>
  <radialGradient id="radialGradient1956" xlink:href="#linearGradient2353" gradientUnits="userSpaceOnUse" cy="77.963" cx="219.31" gradientTransform="matrix(2.5316 0 0 1.244 -414.13 -55.947)" r="164.14"/>
 </defs>
 <g id="layer1">
  <g id="g2218">
   <g stroke-linejoin="round" stroke-width="1.251" fill-rule="evenodd">
    <path id="path2868" opacity=".3" fill="url(#radialGradient1808)" d="m404.25 387.79a148.25 54.936 0 1 1 -296.5 0"/>
    <path id="path2776" opacity=".4" fill="url(#radialGradient1810)" d="m371.96 400.83a115.96 49.008 0 1 1 -231.92 0"/>
    <path id="path2872" opacity=".3" fill="url(#radialGradient1812)" d="m443.88 391.35a187.88 45.733 0 1 1 -375.76 0"/>
   </g>
   <g id="g2184">
    <g id="g2169" fill-rule="evenodd">
     <g id="g1625" stroke-linejoin="bevel" stroke-width="3.516">
      <path id="path2453" fill="url(#radialGradient2147)" d="m359.66 394.08a103.66 34.88 0 1 1 -207.32 0"/>
      <path id="path2543" opacity=".495" fill="url(#radialGradient2149)" d="m359.66 394.08a103.66 34.88 0 1 1 -207.32 0"/>
      <path id="path1288" fill="url(#radialGradient2151)" d="m357.07 390.62a101.07 30.546 0 1 1 -202.15 0"/>
      <path id="path2343" fill="url(#linearGradient2153)" d="m180.16 373.01c-2.247 0.81201-4.387 1.648-6.313 2.522-10.1 4.581-15.407 9.767-15.407 15.084 0 7.184 9.955 14.265 27.622 19.605 17.668 5.34 42.5 8.73 69.941 8.73s52.273-3.39 69.941-8.73c17.667-5.34 27.622-12.421 27.622-19.605 0-5.315-5.304-10.498-15.397-15.078-1.931-0.87601-4.079-1.714-6.333-2.528 3.159 2.625 5.023 5.547 5.023 8.674 0 3.74-2.667 7.239-7.014 10.212-4.346 2.973-10.39 5.512-17.697 7.627-14.614 4.231-34.361 6.764-56.145 6.764s-41.531-2.533-56.145-6.764c-7.306-2.115-13.351-4.654-17.697-7.627-4.347-2.973-7.013-6.472-7.013-10.212 0-3.126 1.854-6.05 5.012-8.674z"/>
     </g>
     <g id="g2457">
      <path id="path2443" opacity=".832" stroke-linejoin="bevel" d="m240.7 430.93l-10.017-59.483c-0.19699-0.84628-0.32869-1.7054-0.32869-2.588 0-9.3583 11.487-16.954 25.645-16.954s25.653 7.5961 25.653 16.954c0 0.6192-0.058502 1.2282-0.15652 1.8303l-10.017 60.241h-30.779z" stroke-width="7.296" fill="url(#radialGradient2155)"/>
      <path id="path1658" opacity=".2" stroke-linejoin="round" d="m323.65 374.07a67.64 13.29 0 1 1 -135.28 0" stroke-width="1.251" fill="url(#radialGradient2157)"/>
      <g stroke-linejoin="bevel" stroke-width="7.296">
       <path id="path2051" fill="url(#linearGradient2159)" d="m240.7 306.11l-10.017 59.483c-0.19699 0.84628-0.32869 1.7054-0.32869 2.5879 0 9.3584 11.487 16.954 25.645 16.954s25.653-7.5961 25.653-16.954c0-0.61917-0.058502-1.2282-0.15652-1.8303l-10.017-60.241h-30.779z"/>
       <path id="path2429" opacity=".327" fill="url(#linearGradient2161)" d="m240.7 306.11l-10.017 59.483c-0.19699 0.84628-0.32869 1.7054-0.32869 2.5879 0 9.3584 11.487 16.954 25.645 16.954s25.653-7.5961 25.653-16.954c0-0.61917-0.058502-1.2282-0.15652-1.8303l-10.017-60.241h-30.779z"/>
       <path id="path2515" opacity=".5" fill="url(#radialGradient2163)" d="m240.7 306.11l-10.017 59.483c-0.19699 0.84628-0.32869 1.7054-0.32869 2.5879 0 9.3584 11.487 16.954 25.645 16.954s25.653-7.5961 25.653-16.954c0-0.61917-0.058502-1.2282-0.15652-1.8303l-10.017-60.241h-30.779z"/>
       <path id="path2551" opacity=".3" fill="url(#radialGradient2165)" d="m240.7 306.11l-10.017 59.483c-0.19699 0.84628-0.32869 1.7054-0.32869 2.5879 0 9.3584 11.487 16.954 25.645 16.954s25.653-7.5961 25.653-16.954c0-0.61917-0.058502-1.2282-0.15652-1.8303l-10.017-60.241h-30.779z"/>
       <path id="path2425" fill="url(#linearGradient2167)" d="m234.75 352.65l-2.261 13.422c-0.011993 0.057007-0.024994 0.112-0.039001 0.168-0.16499 0.707-0.25099 1.346-0.25099 1.938 0 3.485 2.228 7.086 6.527 9.929 4.299 2.842 10.455 4.703 17.271 4.703 0.65799 0 1.297-0.045013 1.941-0.07901-11.126-4.959-19.816-16.122-23.187-30.081h-0.001007z"/>
      </g>
     </g>
    </g>
    <g id="g2786">
     <g fill-rule="evenodd">
      <rect id="rect2459" transform="matrix(.94977 0 0 .94977 4.5926 -5.8252)" rx="5.9432" ry="6.2828" height="292.08" width="364.99" y="75.789" x="82.207" stroke-width="1.25" fill="url(#linearGradient1926)"/>
      <rect id="rect2457" stroke-linejoin="round" transform="matrix(.94977 0 0 .94977 4.5926 -5.8252)" rx="5.3454" ry="5.3454" height="248.5" width="328.28" stroke="url(#radialGradient1930)" y="89.684" x="100.56" stroke-width="4" fill="url(#radialGradient1928)"/>
      <g stroke-width="1.25">
       <path id="path2588" opacity=".777" fill="#fff" d="m88.321 68.049c-2.05 0-3.7397 1.7227-3.7397 4.0662v2.2854c2.2159-2.1484 5.1949-3.5023 8.5182-3.5023h325.8c3.324 0 6.303 1.3539 8.518 3.5023v-2.2854c0-2.3435-1.689-4.0662-3.739-4.0662h-335.36z"/>
       <path id="path2591" opacity=".25" d="m84.581 335.32v2.285c0 2.343 1.6897 4.066 3.7397 4.066h335.36c2.05 0 3.739-1.723 3.739-4.066v-2.285c-2.216 2.141-5.197 3.502-8.518 3.502h-325.8c-3.3205 0-6.3014-1.361-8.5182-3.502z"/>
      </g>
      <g stroke-linejoin="round">
       <g id="g2665" stroke-width="1.494">
        <path id="path2613" fill="url(#radialGradient1932)" stroke="url(#linearGradient1946)" d="m404.47 328.07a5.721 5.721 0 1 1 -11.442 0"/>
        <path id="path2651" opacity=".827" fill="url(#linearGradient1936)" d="m403.97 328.07a5.2173 5.2173 0 1 1 -10.434 0"/>
       </g>
       <g id="g2677">
        <path id="path2679" d="m387.36 330.84a3.4171 3.4171 0 1 1 -6.8341 0" stroke="url(#linearGradient1946)" stroke-width="1.251" fill="url(#radialGradient1938)"/>
        <path id="path2681" opacity=".827" d="m387.05 330.84a3.1162 3.1162 0 1 1 -6.2324 0" stroke-width="1.494" fill="url(#linearGradient1936)"/>
       </g>
       <g id="g2713">
        <path id="path2715" d="m375.33 330.84a3.4171 3.4171 0 1 1 -6.8341 0" stroke="url(#linearGradient1946)" stroke-width="1.251" fill="url(#radialGradient1944)"/>
        <path id="path2717" opacity=".827" d="m375.02 330.84a3.1162 3.1162 0 1 1 -6.2324 0" stroke-width="1.494" fill="url(#linearGradient1936)"/>
       </g>
       <g id="g2725">
        <path id="path2727" d="m363.3 330.84a3.4171 3.4171 0 1 1 -6.8341 0" stroke="url(#linearGradient1946)" stroke-width="1.251" fill="url(#radialGradient1950)"/>
        <path id="path2729" opacity=".827" d="m363 330.84a3.1162 3.1162 0 1 1 -6.2324 0" stroke-width="1.494" fill="url(#linearGradient1936)"/>
       </g>
       <path id="path2768" opacity=".827" d="m107.7 86.955v129.41c25.78 5.463 53.708 8.607 83.045 8.607 97.862 0 181.01-34.286 213.55-78.949v-59.064h-296.6z" stroke-width="4" fill="url(#radialGradient1956)"/>
      </g>
     </g>
    </g>
   </g>
  </g>
 </g>
</svg>
