<?xml version="1.0" encoding="UTF-8" standalone="no"?>
<svg
   xmlns:dc="http://purl.org/dc/elements/1.1/"
   xmlns:cc="http://creativecommons.org/ns#"
   xmlns:rdf="http://www.w3.org/1999/02/22-rdf-syntax-ns#"
   xmlns:svg="http://www.w3.org/2000/svg"
   xmlns="http://www.w3.org/2000/svg"
   xmlns:sodipodi="http://sodipodi.sourceforge.net/DTD/sodipodi-0.dtd"
   xmlns:inkscape="http://www.inkscape.org/namespaces/inkscape"
   width="640"
   height="480"
   id="svg2"
   version="1.1"
   inkscape:version="0.91 r13725"
   sodipodi:docname="schritt.svg">
  <metadata
     id="metadata43">
    <rdf:RDF>
      <cc:Work
         rdf:about="">
        <dc:format>image/svg+xml</dc:format>
        <dc:type
           rdf:resource="http://purl.org/dc/dcmitype/StillImage" />
      </cc:Work>
    </rdf:RDF>
  </metadata>
  <defs
     id="defs41" />
  <sodipodi:namedview
     pagecolor="#ffffff"
     bordercolor="#666666"
     borderopacity="1"
     objecttolerance="10"
     gridtolerance="10"
     guidetolerance="10"
     inkscape:pageopacity="0"
     inkscape:pageshadow="2"
     inkscape:window-width="1920"
     inkscape:window-height="1019"
     id="namedview39"
     showgrid="false"
     inkscape:zoom="0.49166667"
     inkscape:cx="-196.61017"
     inkscape:cy="240"
     inkscape:window-x="-3"
     inkscape:window-y="-3"
     inkscape:window-maximized="1"
     inkscape:current-layer="svg2" />
  <g
     id="layer2"
     style="fill:#000000;fill-opacity:1;stroke:#7f0000"
     transform="translate(331.52542,3.8743914)"
     inkscape:export-xdpi="50.262001"
     inkscape:export-ydpi="50.262001">
    <path
       id="path2995"
       d="m 99.894,66.029 c 0,0 10.077,-23.386 25.858,-33.463 15.781,-10.077 23.006,-14.83 31.181,-14.83 8.1756,0 23.196,1.7112 38.406,12.548 15.21,10.8368 21.675,16.541 26.618,24.717 4.9434,8.1756 7.415,13.309 7.0348,14.26 -0.38026,0.95064 -29.66,18.062 -29.66,18.062 0,0 -3.2322,1.3309 -3.9927,0.19013 -0.76051,-1.1408 -6.0841,-10.077 -11.218,-13.88 -5.1335,-3.8026 -12.739,-7.2249 -19.393,-6.8447 -6.6545,0.38026 -12.548,0.19013 -18.633,6.2743 -6.0842,6.0842 -7.6052,7.7953 -7.6052,7.7953 0,0 -1.3309,2.6618 -3.0421,1.9013 -1.7112,-0.76052 -34.604,-14.83 -34.604,-14.83 l -0.9506,-1.9013 z"
       style="fill:#000000;fill-opacity:1"
       inkscape:connector-curvature="0" />
    <path
       id="path3785"
       d="m 100.97,82.404 27.426,11.293 c 0,0 3.2266,1.3444 2.8233,2.5544 -0.40334,1.21 -1.7477,2.6888 -2.5544,6.3188 -0.80666,3.6299 -1.8822,7.5287 -1.6133,8.6043 0.26888,1.0756 -0.80666,4.3022 -3.7644,3.4955 -2.9577,-0.80665 -9.8142,-3.0922 -11.428,-3.0922 -1.6133,0 -9.2765,-1.7478 -10.218,-1.7478 -0.94109,0 -0.67221,-0.13444 -2.9577,-1.3444 -2.28549,-1.20996 -3.7644,-0.80664 -6.1843,-1.0755 -2.42,-0.26888 -3.7644,0.13444 -3.8988,-0.80665 -0.13444,-0.94109 0,-3.2266 0.67221,-5.3777 0.67221,-2.1511 4.571,-16.805 4.571,-16.805 0,0 -0.13445,-2.5544 1.8822,-2.6888 2.0166,-0.13444 5.2432,0.67221 5.2432,0.67221 z"
       style="fill:#000000;fill-opacity:1"
       inkscape:connector-curvature="0" />
    <path
       id="path3787"
       d="m 93.975,124.22 c 0,0 18.284,4.9744 21.376,5.1088 3.0922,0.13444 5.5121,0.94109 5.5121,0.94109 0,0 2.2855,-0.26888 2.0166,1.21 -0.26889,1.4788 -1.21,12.503 -1.0755,14.923 0.13444,2.42 -0.40332,4.4366 -1.8822,4.9744 -1.4789,0.53777 -4.3021,0.80666 -7.6632,0.80666 -3.361,0 -7.6632,0 -10.218,-0.13444 -2.5544,-0.13444 -4.571,-1.0756 -6.991,-1.4789 -2.42,-0.40332 -1.8822,-0.80664 -5.781,-1.21 -3.8988,-0.40332 -5.2432,0.26889 -6.4532,-0.80664 -1.21,-1.07553 -2.0166,-0.80666 -1.7478,-3.7644 0.26889,-2.9577 0,-3.8988 0.53777,-6.8565 0.53777,-2.9577 0.94109,-5.3777 1.8822,-8.4698 0.94109,-3.0922 0.40332,-3.8988 1.7477,-5.1088 1.34438,-1.21 0.26888,-1.7477 2.6888,-1.7477 2.42,0 3.7644,0.40332 4.7055,0.80665 0.94109,0.40332 1.3444,0.80665 1.3444,0.80665 z"
       style="fill:#000000;fill-opacity:1"
       inkscape:connector-curvature="0" />
    <path
       id="path3789"
       d="m 81.875,164.68 39.391,1.4789 c 0,0 0.40334,12.503 1.3444,16.402 0.9411,3.8988 2.1511,5.1088 0.9411,5.781 -1.21,0.67221 -16.268,3.4955 -22.317,4.1677 -6.0499,0.67221 -10.621,0.40332 -13.31,0.40332 l -4.7055,0 -1.3444,-28.233 z"
       style="fill:#000000;fill-opacity:1"
       inkscape:connector-curvature="0" />
    <path
       id="path3791"
       d="m 87.387,207.97 39.123,-6.4532 c 0,0 0.80665,-0.13444 1.4789,0.94109 0.67221,1.0756 6.991,18.015 6.991,18.015 0,0 0.53778,1.21 -0.26888,1.4789 -0.80666,0.26888 -38.988,13.713 -38.988,13.713 0,0 -0.26889,0.26889 -1.21,-2.42 -0.94109,-2.6888 -6.991,-23.124 -6.991,-23.124 l -0.1344,-2.1511 z"
       style="fill:#000000;fill-opacity:1"
       inkscape:connector-curvature="0" />
    <path
       id="path3793"
       d="m 101.91,251.53 38.182,-17.477 9.2765,19.225 c 0,0 0.67221,1.4788 -0.53777,1.8822 -1.21,0.40332 -35.762,20.973 -35.762,20.973 l -11.159,-24.603 z"
       style="fill:#000000;fill-opacity:1"
       inkscape:connector-curvature="0" />
    <path
       id="path3795"
       d="m 155.01,81.194 c 0,0 -4.3021,2.5544 -6.1843,4.7055 -1.8822,2.1511 -4.3021,6.5876 -5.2432,8.8732 -0.9411,2.2855 -2.1511,4.8399 -2.5544,6.991 -0.40332,2.1511 -1.3444,4.4366 -1.3444,5.1088 0,0.67221 -0.26889,2.2855 0.9411,2.2855 1.20999,0 2.0166,-0.80666 2.8233,-1.6133 0.80666,-0.80665 3.6299,-4.7055 4.9744,-6.3188 1.3444,-1.6133 1.6133,-2.5544 4.7055,-4.571 3.0922,-2.0166 4.1677,-2.8233 4.8399,-3.361 0.67221,-0.53777 1.4788,-1.3444 1.4788,-1.3444 0,0 1.21,-3.0922 0.53778,-4.7055 -0.67221,-1.6133 -1.0755,-3.7644 -1.4789,-4.7055 -0.40332,-0.94109 0.13444,-1.21 -1.0755,-1.4789 -1.21,-0.26888 -2.42,0.13444 -2.42,0.13444 z"
       style="fill:#000000;fill-opacity:1"
       inkscape:connector-curvature="0" />
    <path
       id="path3797"
       d="m 158.78,110.1 -24.603,22.048 -0.6722,21.107 c 0,0 -0.13444,0.9411 0.94109,0.67221 1.0756,-0.26889 26.754,-22.855 26.754,-22.855 0,0 1.21,-1.0755 0.80664,-5.6466 -0.40332,-4.571 -1.4788,-14.923 -1.4788,-14.923 l -1.7478,-0.4033 z"
       style="fill:#000000;fill-opacity:1"
       inkscape:connector-curvature="0" />
    <path
       id="path3799"
       d="m 133.5,173.15 27.964,-24.334 c 0,0 2.1511,-1.4789 2.42,0.80666 0.26889,2.2855 1.0755,16.536 1.0755,16.536 0,0 -0.40332,2.2855 -1.6133,3.0922 -1.21,0.80664 -24.468,19.225 -24.468,19.225 0,0 -2.42,1.4789 -2.8233,-0.13444 -0.40334,-1.6133 -2.5544,-15.192 -2.5544,-15.192 z"
       style="fill:#000000;fill-opacity:1"
       inkscape:connector-curvature="0" />
    <path
       id="path3801"
       d="m 141.57,203.67 22.586,-19.763 c 0,0 3.2266,-2.2855 3.361,4.7055 0.13444,6.991 0.53777,11.428 0.53777,11.428 0,0 0,1.3444 -2.0166,2.9577 -2.0166,1.6133 -17.881,15.864 -17.881,15.864 0,0 -2.8233,2.8233 -3.6299,-0.26888 -0.80666,-3.0922 -3.0922,-11.696 -3.0922,-11.696 l 0.1344,-3.2266 z"
       style="fill:#000000;fill-opacity:1"
       inkscape:connector-curvature="0" />
    <path
       id="path3803"
       d="m 168.86,221.28 1.3444,15.595 -12.1,10.621 -7.1254,-13.848 c 0,0 -0.80664,-2.1511 0.67221,-2.6888 1.4789,-0.53777 15.595,-10.083 15.595,-10.083 l 1.6133,0.4033 z"
       style="fill:#000000;fill-opacity:1"
       inkscape:connector-curvature="0" />
    <path
       id="path3805"
       d="m 172.62,78.505 c 0,0 9.2765,6.1843 13.713,13.848 4.4366,7.6632 5.1088,9.8142 5.1088,9.8142 0,0 0.26888,1.21 -0.9411,1.21 -1.20998,0 -2.8233,-2.5544 -4.4366,-3.2266 -1.6133,-0.67221 -7.3943,-6.0499 -9.8143,-6.991 -2.42,-0.94109 -5.6466,-2.1511 -5.6466,-2.1511 l -0.6722,-0.1344 -0.1344,-11.562 c 0,0 0.53777,-0.67221 1.3444,-0.67221 0.80664,0 1.4788,-0.13444 1.4788,-0.13444 z"
       style="fill:#000000;fill-opacity:1"
       inkscape:connector-curvature="0" />
    <path
       id="path3807"
       d="m 174.1,108.89 16.805,8.8732 c 0,0 1.0755,0 2.9577,0.53777 1.8822,0.53777 1.3444,-1.4789 3.2266,1.8822 1.8822,3.361 1.0756,0.80665 2.6888,4.8399 1.6133,4.0333 3.0922,5.781 3.0922,9.142 0,3.361 -0.94109,4.571 0.26889,5.5121 1.21,0.94109 1.8822,1.4789 1.3444,2.5544 -0.53775,1.0755 -0.13444,1.6133 -1.3444,1.7477 -1.21,0.13444 -29.443,-15.192 -29.443,-15.192 0,0 -0.80664,1.0755 -0.80664,-3.4955 0,-4.571 -0.67221,-13.31 -0.67221,-13.31 0,0 -0.80666,-3.0922 -0.13446,-3.0922 l 2.0166,0 z"
       style="fill:#000000;fill-opacity:1"
       inkscape:connector-curvature="0" />
    <path
       id="path3809"
       d="m 178.14,146.13 26.754,13.848 c 0,0 2.2855,-0.53777 2.42,1.21 0.13443,1.7477 0.94109,19.36 0.94109,19.36 0,0 -0.94109,3.361 -4.0332,1.21 -3.0922,-2.1511 -27.157,-18.284 -27.157,-18.284 0,0 -1.8822,-1.21 -1.7477,-3.2266 0.13444,-2.0166 -1.21,-12.772 -1.21,-12.772 0,0 -0.53777,-1.21 0.40334,-1.7478 0.94109,-0.53777 2.9577,-0.53777 2.9577,-0.53777 l 0.6722,0.9411 z"
       style="fill:#000000;fill-opacity:1"
       inkscape:connector-curvature="0" />
    <path
       id="path3811"
       d="m 178.54,182.03 c 0,0 23.393,10.755 26.082,13.041 2.6888,2.2855 3.7644,1.8822 3.8988,4.9744 0.13444,3.0922 0,7.6632 -0.67221,11.293 -0.67221,3.6299 0.26888,4.8399 -2.1511,4.7055 -2.4199,-0.13444 -4.4366,-0.40332 -7.2599,-2.1511 -2.8233,-1.74778 -19.36,-12.503 -19.36,-12.503 0,0 -2.1511,-2.0166 -1.7477,-2.6888 0.40332,-0.67221 0,-15.192 0,-15.192 l 1.21,-1.4789 z"
       style="fill:#000000;fill-opacity:1"
       inkscape:connector-curvature="0" />
    <path
       id="path3813"
       d="m 188.62,223.97 11.696,9.1421 c 0,0 3.4955,0.13443 2.42,5.5121 -1.0755,5.37767 -2.0166,11.024 -2.0166,11.024 0,0 -0.26888,3.2266 -4.7055,-0.13443 -4.43662,-3.36103 -14.385,-11.159 -14.385,-11.159 0,0 -2.6888,-1.0756 -2.42,-3.6299 0.26889,-2.5544 -0.13443,-12.1 -0.13443,-12.1 0,0 -0.53777,-5.781 3.4955,-2.8233 4.0332,2.9577 6.0499,4.1677 6.0499,4.1677 z"
       style="fill:#000000;fill-opacity:1"
       inkscape:connector-curvature="0" />
    <path
       id="path3815"
       d="m 207.17,98.672 24.737,-13.041 c 0,0 1.8822,-2.2855 3.4955,-0.53777 1.6133,1.74773 7.2599,17.746 7.2599,17.746 0,0 2.8233,4.9744 -0.9411,6.0499 -3.7644,1.0755 -21.376,9.142 -21.376,9.142 0,0 -2.1511,-0.40333 -3.7644,1.21 -1.6133,1.61333 -4.9744,5.3777 -6.1843,0.9411 -1.21,-4.4366 -4.8399,-15.326 -5.9154,-15.595 -1.0755,-0.26888 -1.8822,-3.8988 -1.21,-4.1677 0.67221,-0.26889 3.8988,-1.7478 3.8988,-1.7478 z"
       style="fill:#000000;fill-opacity:1"
       inkscape:connector-curvature="0" />
    <path
       id="path3817"
       d="m 218.87,134.57 c 0,0 4.8399,-3.4955 9.9487,-4.571 5.1088,-1.0756 4.9744,-1.8822 7.6632,-1.6133 2.6888,0.26888 2.2855,0.80664 3.7644,-0.13446 1.4788,-0.94109 0,-1.7477 2.2855,-2.2855 2.2855,-0.53776 3.4955,-0.80665 5.2432,-0.80665 1.7477,0 3.6299,-0.13444 4.0333,2.42 0.40332,2.5544 2.1511,9.8143 2.42,13.31 0.26888,3.4955 1.0755,4.7055 0.67221,6.1843 -0.40334,1.4788 -2.8233,3.0922 -4.571,3.0922 -1.7477,0 -8.4698,1.3444 -10.621,1.7478 -2.1511,0.40332 -6.7221,1.6133 -8.4698,1.7477 -1.7478,0.13444 -2.6888,-0.13444 -4.8399,0.40332 -2.1511,0.53777 -2.8233,-0.13444 -3.4955,0.9411 -0.67221,1.0755 -1.21,2.42 -2.9577,2.2855 -1.7477,-0.13444 -2.5544,-0.40334 -2.8233,-1.4789 -0.26889,-1.0755 -0.53777,-3.4955 -0.80666,-6.8565 -0.26889,-3.361 0,-4.0333 -0.13444,-6.1843 -0.13444,-2.1511 -0.94109,-3.6299 -1.21,-4.0332 -0.26889,-0.40334 -0.13444,-1.8822 0.80666,-2.6888 0.94109,-0.80666 3.0922,-1.4789 3.0922,-1.4789 z"
       style="fill:#000000;fill-opacity:1"
       inkscape:connector-curvature="0" />
    <path
       id="path3819"
       d="m 222.9,169.25 c 0,0 6.1843,-1.8822 8.7387,-2.0166 2.5544,-0.13443 3.2266,-1.21 5.781,-1.4788 2.5544,-0.26889 3.2266,-0.53777 5.1088,-0.26889 1.8822,0.26889 1.21,0.40334 2.9577,0.13444 1.7477,-0.26888 4.0332,-1.8822 5.6466,-2.1511 1.6133,-0.26889 2.1511,-0.9411 4.0332,0.26889 1.8822,1.21 2.0166,2.4199 2.1511,3.2266 0.13443,0.80666 1.21,16.671 1.21,16.671 0,0 -0.80664,4.0332 -2.6888,4.3021 -1.8822,0.26889 -25.678,0.9411 -25.678,0.9411 0,0 -2.0166,-1.4788 -3.4955,-0.67221 -1.4789,0.80666 -2.5544,0.80666 -3.4955,0.80666 -0.9411,0 -1.21,-0.13444 -1.21,-0.13444 0,0 -0.67221,0.13444 -1.21,-0.26889 -0.53775,-0.40332 -1.8822,0.67221 -1.8822,-2.5544 l 0,-13.713 c 0,0 -0.80666,-1.6133 1.0755,-2.1511 1.8822,-0.53775 2.9577,-0.94109 2.9577,-0.94109 z"
       style="fill:#000000;fill-opacity:1"
       inkscape:connector-curvature="0" />
    <path
       id="path3821"
       d="m 220.62,202.06 c 0,0 18.284,-0.67221 20.973,-0.40334 2.6888,0.26889 4.571,0.26889 5.3777,0.26889 0.80664,0 0.67221,0.80664 2.1511,0.9411 1.4789,0.13443 2.0166,-0.26889 2.6888,-0.67221 0.6722,-0.40334 3.7644,-1.0756 4.8399,-0.26889 1.0755,0.80664 2.5544,0.40332 2.42,3.4955 -0.13446,3.0922 -1.3444,7.2599 -1.8822,11.428 -0.53775,4.1677 -2.5544,7.1254 -2.5544,8.2009 0,1.0755 0.26889,2.1511 0.26889,2.1511 0,0 -2.0166,0.40332 -3.6299,0.53775 -1.6133,0.13446 -7.5288,-1.6133 -8.4698,-1.7477 -0.94109,-0.13443 -3.2266,-0.6722 -5.9154,-1.0755 -2.6888,-0.40334 -1.21,-0.40334 -4.8399,-0.67221 -3.6299,-0.26889 -4.8399,-0.40334 -6.8565,-0.40334 -2.0166,0 -3.361,0.67221 -4.9743,-0.53777 -1.6133,-1.20998 -1.6133,-0.53777 -2.2855,-1.6133 -0.67221,-1.0755 -0.53778,-0.26888 -0.80666,-2.5544 -0.26889,-2.2855 -0.40334,-5.781 -0.13444,-6.7221 0.26889,-0.9411 0,-7.2599 0.40332,-7.9321 0.40332,-0.67221 0.13444,-1.8822 1.0755,-2.1511 0.9411,-0.26888 2.1511,-0.26888 2.1511,-0.26888 z"
       style="fill:#000000;fill-opacity:1"
       inkscape:connector-curvature="0" />
    <path
       id="path3823"
       d="m 216.32,238.36 c 0,0 20.57,3.7644 24.603,5.9154 4.0332,2.1511 4.4366,1.6133 6.8565,2.4199 2.42,0.80666 4.3021,-0.26888 4.0333,3.7644 -0.26889,4.0333 -2.5544,15.73 -2.5544,15.73 l -1.7477,8.3354 c 0,0 -1.6133,4.3022 -5.2432,2.5544 -3.6299,-1.7477 -31.325,-17.074 -31.325,-17.074 0,0 -3.361,0.26889 -2.8233,-2.42 0.53777,-2.6888 1.6133,-7.5287 1.8822,-8.2009 0.26888,-0.67221 2.0166,-6.1843 2.2855,-7.1254 0.26889,-0.9411 -0.94109,-4.571 0.53778,-4.571 1.4788,0 3.4955,0.67221 3.4955,0.67221 z"
       style="fill:#000000;fill-opacity:1"
       inkscape:connector-curvature="0" />
    <path
       id="path3825"
       d="m 188.08,421.2 27.023,15.73 c 0,0 2.6888,1.4789 1.0755,2.9577 -1.6133,1.4788 -5.3777,6.8565 -6.8565,7.9321 -1.4788,1.0755 -18.15,13.579 -24.872,14.116 -6.7221,0.53778 -24.065,1.21 -30.653,0.13443 -6.5876,-1.0755 -22.99,-5.5121 -28.502,-10.621 -5.5121,-5.1088 -17.881,-14.116 -19.091,-16.94 -1.21,-2.8233 -2.5544,-6.4532 -2.5544,-6.4532 0,0 -1.0755,-2.0166 0.40332,-2.6888 1.4789,-0.67221 2.6888,-1.21 5.6466,-1.8822 2.9577,-0.67221 26.485,-8.7387 26.485,-8.7387 0,0 2.42,-1.21 5.3777,0 2.9577,1.21 2.2855,1.4788 3.6299,3.4955 1.3444,2.0166 1.6133,4.0333 5.6466,5.1088 4.0332,1.0755 5.1088,2.1511 9.6798,2.2855 4.571,0.13443 6.991,0.53775 10.218,-0.26889 3.2266,-0.80667 5.3777,-1.21 7.3943,-2.9577 2.0166,-1.7477 3.4955,-3.6299 4.7055,-3.7644 1.21,-0.13443 2.1511,-0.13443 3.4955,0.53778 1.3444,0.67221 2.42,2.1511 2.42,2.1511 0,0 -1.4788,-0.26886 -0.67221,-0.13443 z"
       style="fill:#000000;fill-opacity:1"
       inkscape:connector-curvature="0" />
    <path
       id="path3827"
       d="m 200.86,338.65 33.61,3.7644 c 0,0 2.6888,-0.13443 2.6888,2.0166 0,2.1511 -2.2855,22.317 -2.2855,22.317 0,0 -0.40334,2.42 -3.0922,1.7477 -2.6888,-0.67221 -32.938,-5.781 -32.938,-5.781 0,0 -2.6888,-0.26889 -2.6888,-2.2855 0,-2.01661 1.7477,-20.032 1.7477,-20.032 0,0 -0.26888,-2.2855 1.0756,-2.2855 1.3444,0 1.8822,0.53778 1.8822,0.53778 z"
       style="fill:#000000;fill-opacity:1"
       inkscape:connector-curvature="0" />
    <path
       id="path3831"
       d="m 199.11,373.74 c 0,0 26.216,5.781 28.367,5.9154 2.1511,0.13446 4.3021,0.26889 4.9743,0.67221 0.67221,0.40332 2.0166,-0.26889 1.7478,2.42 -0.26889,2.6888 -1.3444,7.9321 -1.7478,9.5454 -0.40332,1.6133 -1.3444,3.0922 -2.2855,3.7644 -0.94109,0.67221 -3.7644,0.80664 -6.3188,0.26886 -2.5544,-0.53775 -17.881,-4.9743 -21.914,-5.9154 -4.0333,-0.94107 -8.4698,-1.3444 -8.7387,-2.6888 -0.26888,-1.3444 -0.80666,-3.361 -0.40334,-6.3188 0.40334,-2.9577 0.26889,-5.3777 0.67221,-6.4532 0.40334,-1.0755 0.80666,-2.8232 2.42,-2.5544 1.6133,0.26889 3.2266,1.3444 3.2266,1.3444 z"
       style="fill:#000000;fill-opacity:1"
       inkscape:connector-curvature="0" />
    <path
       id="path3833"
       d="m 193.73,399.69 33.476,9.6798 c 0,0 2.42,1.3444 1.6133,3.8988 -0.80664,2.5544 -3.2266,11.024 -5.3777,13.041 -2.1511,2.0166 -1.7477,3.0922 -2.9577,2.2855 -1.21,-0.80667 -6.8565,-4.0333 -11.024,-6.991 -4.1677,-2.9577 -12.234,-8.6042 -14.654,-8.8731 -2.42,-0.26889 -5.1088,-1.7477 -5.3777,-2.6888 -0.26888,-0.9411 -0.94109,-1.3444 -0.13444,-4.4366 0.80666,-3.0922 -0.26888,-4.571 1.3444,-5.2432 1.6133,-0.67221 3.0922,-0.67221 3.0922,-0.67221 z"
       style="fill:#000000;fill-opacity:1"
       inkscape:connector-curvature="0" />
    <path
       id="path3835"
       d="m 100.43,392.43 33.745,0.1344 c 0,0 1.21,-1.0755 2.1511,-0.40332 0.9411,0.67221 1.21,0.80667 1.4789,2.2855 0.26888,1.4788 0.40332,5.9154 0.40332,6.7221 0,0.80667 0.9411,2.2855 -1.4789,2.6888 -2.42,0.40332 -36.703,9.2765 -36.703,9.2765 0,0 -0.80665,0.9411 -0.80665,-2.5544 0,-3.4955 -0.26889,-5.2432 -0.26889,-7.932 0,-2.6888 -0.13444,-6.0499 0.26889,-7.1254 0.40332,-1.0755 0.53776,-2.8233 1.21,-3.0922 z"
       style="fill:#000000;fill-opacity:1"
       inkscape:connector-curvature="0" />
    <path
       id="path3837"
       d="m 105.81,362.85 c 0,0 10.755,0.13443 15.864,0.9411 5.1088,0.80664 6.991,1.7477 9.2765,1.8822 2.2855,0.13443 6.8565,0.53775 6.8565,0.53775 0,0 2.5544,0.26889 2.6888,2.1511 0.13443,1.8822 -0.13446,4.1677 -0.13446,6.7221 0,2.5544 -1.8822,4.8399 -1.8822,4.8399 0,0 -2.42,1.6133 -6.8565,1.3444 -4.4366,-0.26889 -4.9743,-0.26889 -9.8143,-0.53775 -4.8399,-0.26889 -9.9487,-0.26889 -11.293,-0.26889 l -6.7221,0 -2.6888,0 c 0,0 -2.5544,0.53775 -1.6133,-3.6299 0.94109,-4.1677 0.80665,-6.3188 1.3444,-8.2009 0.53777,-1.8822 0.13444,-3.361 1.21,-4.3022 1.0755,-0.9411 3.7644,-1.4788 3.7644,-1.4788 z"
       style="fill:#000000;fill-opacity:1"
       inkscape:connector-curvature="0" />
    <path
       id="path3839"
       d="m 114.28,325.07 c 0,0 10.486,2.2855 13.31,2.2855 2.8233,0 2.0166,-1.0755 4.4366,-0.26889 2.42,0.80664 4.0333,0.67221 5.781,1.3444 1.7477,0.67221 2.6888,1.3444 4.3021,1.3444 1.6133,0 2.5544,0.67221 2.42,4.4366 -0.13444,3.7644 -1.0755,5.3777 -1.0755,8.8732 0,3.4955 -1.3444,10.083 -1.3444,10.083 l -37.375,-1.8822 c 0,0 -1.21,-1.8822 0.53777,-5.1088 1.7477,-3.2266 2.0166,-5.6466 2.4199,-7.9321 0.40334,-2.2855 0.94109,-3.8988 1.8822,-5.1088 0.94109,-1.21 1.7477,-3.2266 2.0166,-4.1677 0.26889,-0.9411 0.67221,-4.0333 0.67221,-4.0333 l 2.0166,0.1344 z"
       style="fill:#000000;fill-opacity:1"
       inkscape:connector-curvature="0" />
    <path
       id="path3841"
       d="m 155.82,343.22 7.3943,7.5287 c 0,0 0.67221,0.40332 0.40334,3.4955 -0.26889,3.0922 -1.3444,8.201 -1.3444,8.201 0,0 0.94109,1.8822 -0.53778,1.7477 -1.4788,-0.13443 -4.9743,-1.3444 -5.6466,-2.2855 -0.67221,-0.9411 -3.0922,-2.2855 -3.361,-2.8233 -0.26888,-0.53778 -1.0755,-1.8822 -1.21,-2.42 -0.13446,-0.53778 -1.0756,-3.8988 -0.67221,-5.9154 0.40332,-2.0166 0.40332,-4.7055 1.4788,-5.9155 1.07548,-1.21 2.42,-1.7477 2.42,-1.7477 l 1.0755,0.1344 z"
       style="fill:#000000;fill-opacity:1"
       inkscape:connector-curvature="0" />
    <path
       id="path3843"
       d="m 153.13,372.4 5.6465,6.3188 c 0,0 0.80666,0.26889 0.80666,3.4955 0,3.22661 0.13444,5.3777 -1.0755,5.3777 -1.21,0 -4.1677,-0.9411 -5.2432,-2.0166 -1.0756,-1.0755 -3.4955,-1.8822 -4.1677,-3.2266 -0.67221,-1.3444 -1.6133,-2.6888 -1.0755,-4.9744 0.53778,-2.2855 1.4789,-4.3021 2.2855,-4.7054 0.80666,-0.40335 2.8233,-0.26889 2.8233,-0.26889 z"
       style="fill:#000000;fill-opacity:1"
       inkscape:connector-curvature="0" />
    <path
       id="path3845"
       d="m 149.9,397.54 c 0,0 2.5544,1.7477 3.8988,2.9577 1.3444,1.21 2.0166,1.3444 2.1511,4.3021 0.13444,2.9577 0.53777,5.9154 0,7.2599 -0.53777,1.3444 -0.26889,1.8822 -1.4788,1.8822 -1.21,0 -1.7478,-0.80667 -2.2855,-1.6133 -0.53777,-0.80664 -1.4789,-1.6133 -2.0166,-2.6888 -0.53778,-1.0755 -2.0166,-2.9577 -2.2855,-4.3022 -0.26889,-1.3444 -1.0756,-3.0921 -1.0756,-3.8988 0,-0.80664 0,-1.8822 0.53777,-2.6888 0.53778,-0.80664 1.7477,-1.4788 1.7477,-1.4788 l 0.8067,0.2689 z"
       style="fill:#000000;fill-opacity:1"
       inkscape:connector-curvature="0" />
    <path
       id="path3847"
       d="m 174.91,352.9 c 0,0 2.1511,-1.7477 3.4955,-1.7477 1.3444,0 3.2266,-0.13443 4.0332,-1.21 0.80667,-1.0755 3.2266,-2.2855 3.6299,-2.2855 0.40334,0 0.80666,0.13443 0.80666,1.8822 0,1.7477 -0.13444,4.0333 -0.40332,5.781 -0.26888,1.7477 -0.40334,3.8988 -0.40334,4.9743 0,1.0756 2.2855,0.40335 -0.53775,1.8822 -2.8233,1.4788 -7.1254,3.6299 -7.1254,3.6299 l -2.42,-0.1344 c 0,0 -1.3444,-0.67221 -1.4788,-1.7477 -0.13444,-1.0755 -0.26889,-2.42 -0.13444,-4.0333 0.13444,-1.6133 0.53777,-3.361 0.53777,-3.8988 l 0,-3.0922 z"
       style="fill:#000000;fill-opacity:1"
       inkscape:connector-curvature="0" />
    <path
       id="path3849"
       d="m 172.22,381.27 c 0,0 5.5121,-2.8233 7.7976,-3.2266 2.2855,-0.40332 2.6888,-0.13443 2.5544,1.8822 -0.13444,2.0166 -0.13444,3.8988 -0.13444,3.8988 0,0 0.40334,1.6133 -0.6722,2.1511 -1.0756,0.53778 -3.0922,2.0166 -4.571,2.2855 -1.4789,0.26889 -4.3021,1.6133 -5.2432,0.80664 -0.94109,-0.80664 -0.94109,-3.0922 -0.67221,-4.0332 0.26889,-0.9411 0.9411,-3.7644 0.9411,-3.7644 z"
       style="fill:#000000;fill-opacity:1"
       inkscape:connector-curvature="0" />
    <path
       id="path3851"
       d="m 171.01,404.53 5.6466,-4.4366 c 0,0 2.2855,-1.0755 2.5544,0.26889 0.26888,1.3444 -1.4788,4.571 -1.4788,4.571 0,0 -1.3444,7.2599 -2.5544,8.4698 -1.21,1.21 -2.8233,2.6888 -4.0333,2.9577 -1.21,0.26889 -2.1511,0.80664 -2.1511,-1.8822 0,-2.68884 0.67221,-7.7976 0.67221,-7.7976 l 1.3444,-2.1511 z"
       style="fill:#000000;fill-opacity:1"
       inkscape:connector-curvature="0" />
  </g>
  <g
     transform="matrix(-1,0,0,1,326.65748,3.8743914)"
     id="layer2-4"
     style="fill:#000000;fill-opacity:1;stroke:#7f0000"
     inkscape:export-xdpi="50.262001"
     inkscape:export-ydpi="50.262001">
    <path
       inkscape:connector-curvature="0"
       id="path2995-2"
       d="m 99.894,66.029 c 0,0 10.077,-23.386 25.858,-33.463 15.781,-10.077 23.006,-14.83 31.181,-14.83 8.1756,0 23.196,1.7112 38.406,12.548 15.21,10.8368 21.675,16.541 26.618,24.717 4.9434,8.1756 7.415,13.309 7.0348,14.26 -0.38026,0.95064 -29.66,18.062 -29.66,18.062 0,0 -3.2322,1.3309 -3.9927,0.19013 -0.76051,-1.1408 -6.0841,-10.077 -11.218,-13.88 -5.1335,-3.8026 -12.739,-7.2249 -19.393,-6.8447 -6.6545,0.38026 -12.548,0.19013 -18.633,6.2743 -6.0842,6.0842 -7.6052,7.7953 -7.6052,7.7953 0,0 -1.3309,2.6618 -3.0421,1.9013 -1.7112,-0.76052 -34.604,-14.83 -34.604,-14.83 l -0.9506,-1.9013 z"
       style="fill:#000000;fill-opacity:1" />
    <path
       inkscape:connector-curvature="0"
       id="path3785-6"
       d="m 100.97,82.404 27.426,11.293 c 0,0 3.2266,1.3444 2.8233,2.5544 -0.40334,1.21 -1.7477,2.6888 -2.5544,6.3188 -0.80666,3.6299 -1.8822,7.5287 -1.6133,8.6043 0.26888,1.0756 -0.80666,4.3022 -3.7644,3.4955 -2.9577,-0.80665 -9.8142,-3.0922 -11.428,-3.0922 -1.6133,0 -9.2765,-1.7478 -10.218,-1.7478 -0.94109,0 -0.67221,-0.13444 -2.9577,-1.3444 -2.28549,-1.20996 -3.7644,-0.80664 -6.1843,-1.0755 -2.42,-0.26888 -3.7644,0.13444 -3.8988,-0.80665 -0.13444,-0.94109 0,-3.2266 0.67221,-5.3777 0.67221,-2.1511 4.571,-16.805 4.571,-16.805 0,0 -0.13445,-2.5544 1.8822,-2.6888 2.0166,-0.13444 5.2432,0.67221 5.2432,0.67221 z"
       style="fill:#000000;fill-opacity:1" />
    <path
       inkscape:connector-curvature="0"
       id="path3787-4"
       d="m 93.975,124.22 c 0,0 18.284,4.9744 21.376,5.1088 3.0922,0.13444 5.5121,0.94109 5.5121,0.94109 0,0 2.2855,-0.26888 2.0166,1.21 -0.26889,1.4788 -1.21,12.503 -1.0755,14.923 0.13444,2.42 -0.40332,4.4366 -1.8822,4.9744 -1.4789,0.53777 -4.3021,0.80666 -7.6632,0.80666 -3.361,0 -7.6632,0 -10.218,-0.13444 -2.5544,-0.13444 -4.571,-1.0756 -6.991,-1.4789 -2.42,-0.40332 -1.8822,-0.80664 -5.781,-1.21 -3.8988,-0.40332 -5.2432,0.26889 -6.4532,-0.80664 -1.21,-1.07553 -2.0166,-0.80666 -1.7478,-3.7644 0.26889,-2.9577 0,-3.8988 0.53777,-6.8565 0.53777,-2.9577 0.94109,-5.3777 1.8822,-8.4698 0.94109,-3.0922 0.40332,-3.8988 1.7477,-5.1088 1.34438,-1.21 0.26888,-1.7477 2.6888,-1.7477 2.42,0 3.7644,0.40332 4.7055,0.80665 0.94109,0.40332 1.3444,0.80665 1.3444,0.80665 z"
       style="fill:#000000;fill-opacity:1" />
    <path
       inkscape:connector-curvature="0"
       id="path3789-1"
       d="m 81.875,164.68 39.391,1.4789 c 0,0 0.40334,12.503 1.3444,16.402 0.9411,3.8988 2.1511,5.1088 0.9411,5.781 -1.21,0.67221 -16.268,3.4955 -22.317,4.1677 -6.0499,0.67221 -10.621,0.40332 -13.31,0.40332 l -4.7055,0 -1.3444,-28.233 z"
       style="fill:#000000;fill-opacity:1" />
    <path
       inkscape:connector-curvature="0"
       id="path3791-2"
       d="m 87.387,207.97 39.123,-6.4532 c 0,0 0.80665,-0.13444 1.4789,0.94109 0.67221,1.0756 6.991,18.015 6.991,18.015 0,0 0.53778,1.21 -0.26888,1.4789 -0.80666,0.26888 -38.988,13.713 -38.988,13.713 0,0 -0.26889,0.26889 -1.21,-2.42 -0.94109,-2.6888 -6.991,-23.124 -6.991,-23.124 l -0.1344,-2.1511 z"
       style="fill:#000000;fill-opacity:1" />
    <path
       inkscape:connector-curvature="0"
       id="path3793-8"
       d="m 101.91,251.53 38.182,-17.477 9.2765,19.225 c 0,0 0.67221,1.4788 -0.53777,1.8822 -1.21,0.40332 -35.762,20.973 -35.762,20.973 l -11.159,-24.603 z"
       style="fill:#000000;fill-opacity:1" />
    <path
       inkscape:connector-curvature="0"
       id="path3795-9"
       d="m 155.01,81.194 c 0,0 -4.3021,2.5544 -6.1843,4.7055 -1.8822,2.1511 -4.3021,6.5876 -5.2432,8.8732 -0.9411,2.2855 -2.1511,4.8399 -2.5544,6.991 -0.40332,2.1511 -1.3444,4.4366 -1.3444,5.1088 0,0.67221 -0.26889,2.2855 0.9411,2.2855 1.20999,0 2.0166,-0.80666 2.8233,-1.6133 0.80666,-0.80665 3.6299,-4.7055 4.9744,-6.3188 1.3444,-1.6133 1.6133,-2.5544 4.7055,-4.571 3.0922,-2.0166 4.1677,-2.8233 4.8399,-3.361 0.67221,-0.53777 1.4788,-1.3444 1.4788,-1.3444 0,0 1.21,-3.0922 0.53778,-4.7055 -0.67221,-1.6133 -1.0755,-3.7644 -1.4789,-4.7055 -0.40332,-0.94109 0.13444,-1.21 -1.0755,-1.4789 -1.21,-0.26888 -2.42,0.13444 -2.42,0.13444 z"
       style="fill:#000000;fill-opacity:1" />
    <path
       inkscape:connector-curvature="0"
       id="path3797-4"
       d="m 158.78,110.1 -24.603,22.048 -0.6722,21.107 c 0,0 -0.13444,0.9411 0.94109,0.67221 1.0756,-0.26889 26.754,-22.855 26.754,-22.855 0,0 1.21,-1.0755 0.80664,-5.6466 -0.40332,-4.571 -1.4788,-14.923 -1.4788,-14.923 l -1.7478,-0.4033 z"
       style="fill:#000000;fill-opacity:1" />
    <path
       inkscape:connector-curvature="0"
       id="path3799-9"
       d="m 133.5,173.15 27.964,-24.334 c 0,0 2.1511,-1.4789 2.42,0.80666 0.26889,2.2855 1.0755,16.536 1.0755,16.536 0,0 -0.40332,2.2855 -1.6133,3.0922 -1.21,0.80664 -24.468,19.225 -24.468,19.225 0,0 -2.42,1.4789 -2.8233,-0.13444 -0.40334,-1.6133 -2.5544,-15.192 -2.5544,-15.192 z"
       style="fill:#000000;fill-opacity:1" />
    <path
       inkscape:connector-curvature="0"
       id="path3801-6"
       d="m 141.57,203.67 22.586,-19.763 c 0,0 3.2266,-2.2855 3.361,4.7055 0.13444,6.991 0.53777,11.428 0.53777,11.428 0,0 0,1.3444 -2.0166,2.9577 -2.0166,1.6133 -17.881,15.864 -17.881,15.864 0,0 -2.8233,2.8233 -3.6299,-0.26888 -0.80666,-3.0922 -3.0922,-11.696 -3.0922,-11.696 l 0.1344,-3.2266 z"
       style="fill:#000000;fill-opacity:1" />
    <path
       inkscape:connector-curvature="0"
       id="path3803-4"
       d="m 168.86,221.28 1.3444,15.595 -12.1,10.621 -7.1254,-13.848 c 0,0 -0.80664,-2.1511 0.67221,-2.6888 1.4789,-0.53777 15.595,-10.083 15.595,-10.083 l 1.6133,0.4033 z"
       style="fill:#000000;fill-opacity:1" />
    <path
       inkscape:connector-curvature="0"
       id="path3805-4"
       d="m 172.62,78.505 c 0,0 9.2765,6.1843 13.713,13.848 4.4366,7.6632 5.1088,9.8142 5.1088,9.8142 0,0 0.26888,1.21 -0.9411,1.21 -1.20998,0 -2.8233,-2.5544 -4.4366,-3.2266 -1.6133,-0.67221 -7.3943,-6.0499 -9.8143,-6.991 -2.42,-0.94109 -5.6466,-2.1511 -5.6466,-2.1511 l -0.6722,-0.1344 -0.1344,-11.562 c 0,0 0.53777,-0.67221 1.3444,-0.67221 0.80664,0 1.4788,-0.13444 1.4788,-0.13444 z"
       style="fill:#000000;fill-opacity:1" />
    <path
       inkscape:connector-curvature="0"
       id="path3807-4"
       d="m 174.1,108.89 16.805,8.8732 c 0,0 1.0755,0 2.9577,0.53777 1.8822,0.53777 1.3444,-1.4789 3.2266,1.8822 1.8822,3.361 1.0756,0.80665 2.6888,4.8399 1.6133,4.0333 3.0922,5.781 3.0922,9.142 0,3.361 -0.94109,4.571 0.26889,5.5121 1.21,0.94109 1.8822,1.4789 1.3444,2.5544 -0.53775,1.0755 -0.13444,1.6133 -1.3444,1.7477 -1.21,0.13444 -29.443,-15.192 -29.443,-15.192 0,0 -0.80664,1.0755 -0.80664,-3.4955 0,-4.571 -0.67221,-13.31 -0.67221,-13.31 0,0 -0.80666,-3.0922 -0.13446,-3.0922 l 2.0166,0 z"
       style="fill:#000000;fill-opacity:1" />
    <path
       inkscape:connector-curvature="0"
       id="path3809-2"
       d="m 178.14,146.13 26.754,13.848 c 0,0 2.2855,-0.53777 2.42,1.21 0.13443,1.7477 0.94109,19.36 0.94109,19.36 0,0 -0.94109,3.361 -4.0332,1.21 -3.0922,-2.1511 -27.157,-18.284 -27.157,-18.284 0,0 -1.8822,-1.21 -1.7477,-3.2266 0.13444,-2.0166 -1.21,-12.772 -1.21,-12.772 0,0 -0.53777,-1.21 0.40334,-1.7478 0.94109,-0.53777 2.9577,-0.53777 2.9577,-0.53777 l 0.6722,0.9411 z"
       style="fill:#000000;fill-opacity:1" />
    <path
       inkscape:connector-curvature="0"
       id="path3811-4"
       d="m 178.54,182.03 c 0,0 23.393,10.755 26.082,13.041 2.6888,2.2855 3.7644,1.8822 3.8988,4.9744 0.13444,3.0922 0,7.6632 -0.67221,11.293 -0.67221,3.6299 0.26888,4.8399 -2.1511,4.7055 -2.4199,-0.13444 -4.4366,-0.40332 -7.2599,-2.1511 -2.8233,-1.74778 -19.36,-12.503 -19.36,-12.503 0,0 -2.1511,-2.0166 -1.7477,-2.6888 0.40332,-0.67221 0,-15.192 0,-15.192 l 1.21,-1.4789 z"
       style="fill:#000000;fill-opacity:1" />
    <path
       inkscape:connector-curvature="0"
       id="path3813-9"
       d="m 188.62,223.97 11.696,9.1421 c 0,0 3.4955,0.13443 2.42,5.5121 -1.0755,5.37767 -2.0166,11.024 -2.0166,11.024 0,0 -0.26888,3.2266 -4.7055,-0.13443 -4.43662,-3.36103 -14.385,-11.159 -14.385,-11.159 0,0 -2.6888,-1.0756 -2.42,-3.6299 0.26889,-2.5544 -0.13443,-12.1 -0.13443,-12.1 0,0 -0.53777,-5.781 3.4955,-2.8233 4.0332,2.9577 6.0499,4.1677 6.0499,4.1677 z"
       style="fill:#000000;fill-opacity:1" />
    <path
       inkscape:connector-curvature="0"
       id="path3815-2"
       d="m 207.17,98.672 24.737,-13.041 c 0,0 1.8822,-2.2855 3.4955,-0.53777 1.6133,1.74773 7.2599,17.746 7.2599,17.746 0,0 2.8233,4.9744 -0.9411,6.0499 -3.7644,1.0755 -21.376,9.142 -21.376,9.142 0,0 -2.1511,-0.40333 -3.7644,1.21 -1.6133,1.61333 -4.9744,5.3777 -6.1843,0.9411 -1.21,-4.4366 -4.8399,-15.326 -5.9154,-15.595 -1.0755,-0.26888 -1.8822,-3.8988 -1.21,-4.1677 0.67221,-0.26889 3.8988,-1.7478 3.8988,-1.7478 z"
       style="fill:#000000;fill-opacity:1" />
    <path
       inkscape:connector-curvature="0"
       id="path3817-9"
       d="m 218.87,134.57 c 0,0 4.8399,-3.4955 9.9487,-4.571 5.1088,-1.0756 4.9744,-1.8822 7.6632,-1.6133 2.6888,0.26888 2.2855,0.80664 3.7644,-0.13446 1.4788,-0.94109 0,-1.7477 2.2855,-2.2855 2.2855,-0.53776 3.4955,-0.80665 5.2432,-0.80665 1.7477,0 3.6299,-0.13444 4.0333,2.42 0.40332,2.5544 2.1511,9.8143 2.42,13.31 0.26888,3.4955 1.0755,4.7055 0.67221,6.1843 -0.40334,1.4788 -2.8233,3.0922 -4.571,3.0922 -1.7477,0 -8.4698,1.3444 -10.621,1.7478 -2.1511,0.40332 -6.7221,1.6133 -8.4698,1.7477 -1.7478,0.13444 -2.6888,-0.13444 -4.8399,0.40332 -2.1511,0.53777 -2.8233,-0.13444 -3.4955,0.9411 -0.67221,1.0755 -1.21,2.42 -2.9577,2.2855 -1.7477,-0.13444 -2.5544,-0.40334 -2.8233,-1.4789 -0.26889,-1.0755 -0.53777,-3.4955 -0.80666,-6.8565 -0.26889,-3.361 0,-4.0333 -0.13444,-6.1843 -0.13444,-2.1511 -0.94109,-3.6299 -1.21,-4.0332 -0.26889,-0.40334 -0.13444,-1.8822 0.80666,-2.6888 0.94109,-0.80666 3.0922,-1.4789 3.0922,-1.4789 z"
       style="fill:#000000;fill-opacity:1" />
    <path
       inkscape:connector-curvature="0"
       id="path3819-3"
       d="m 222.9,169.25 c 0,0 6.1843,-1.8822 8.7387,-2.0166 2.5544,-0.13443 3.2266,-1.21 5.781,-1.4788 2.5544,-0.26889 3.2266,-0.53777 5.1088,-0.26889 1.8822,0.26889 1.21,0.40334 2.9577,0.13444 1.7477,-0.26888 4.0332,-1.8822 5.6466,-2.1511 1.6133,-0.26889 2.1511,-0.9411 4.0332,0.26889 1.8822,1.21 2.0166,2.4199 2.1511,3.2266 0.13443,0.80666 1.21,16.671 1.21,16.671 0,0 -0.80664,4.0332 -2.6888,4.3021 -1.8822,0.26889 -25.678,0.9411 -25.678,0.9411 0,0 -2.0166,-1.4788 -3.4955,-0.67221 -1.4789,0.80666 -2.5544,0.80666 -3.4955,0.80666 -0.9411,0 -1.21,-0.13444 -1.21,-0.13444 0,0 -0.67221,0.13444 -1.21,-0.26889 -0.53775,-0.40332 -1.8822,0.67221 -1.8822,-2.5544 l 0,-13.713 c 0,0 -0.80666,-1.6133 1.0755,-2.1511 1.8822,-0.53775 2.9577,-0.94109 2.9577,-0.94109 z"
       style="fill:#000000;fill-opacity:1" />
    <path
       inkscape:connector-curvature="0"
       id="path3821-5"
       d="m 220.62,202.06 c 0,0 18.284,-0.67221 20.973,-0.40334 2.6888,0.26889 4.571,0.26889 5.3777,0.26889 0.80664,0 0.67221,0.80664 2.1511,0.9411 1.4789,0.13443 2.0166,-0.26889 2.6888,-0.67221 0.6722,-0.40334 3.7644,-1.0756 4.8399,-0.26889 1.0755,0.80664 2.5544,0.40332 2.42,3.4955 -0.13446,3.0922 -1.3444,7.2599 -1.8822,11.428 -0.53775,4.1677 -2.5544,7.1254 -2.5544,8.2009 0,1.0755 0.26889,2.1511 0.26889,2.1511 0,0 -2.0166,0.40332 -3.6299,0.53775 -1.6133,0.13446 -7.5288,-1.6133 -8.4698,-1.7477 -0.94109,-0.13443 -3.2266,-0.6722 -5.9154,-1.0755 -2.6888,-0.40334 -1.21,-0.40334 -4.8399,-0.67221 -3.6299,-0.26889 -4.8399,-0.40334 -6.8565,-0.40334 -2.0166,0 -3.361,0.67221 -4.9743,-0.53777 -1.6133,-1.20998 -1.6133,-0.53777 -2.2855,-1.6133 -0.67221,-1.0755 -0.53778,-0.26888 -0.80666,-2.5544 -0.26889,-2.2855 -0.40334,-5.781 -0.13444,-6.7221 0.26889,-0.9411 0,-7.2599 0.40332,-7.9321 0.40332,-0.67221 0.13444,-1.8822 1.0755,-2.1511 0.9411,-0.26888 2.1511,-0.26888 2.1511,-0.26888 z"
       style="fill:#000000;fill-opacity:1" />
    <path
       inkscape:connector-curvature="0"
       id="path3823-0"
       d="m 216.32,238.36 c 0,0 20.57,3.7644 24.603,5.9154 4.0332,2.1511 4.4366,1.6133 6.8565,2.4199 2.42,0.80666 4.3021,-0.26888 4.0333,3.7644 -0.26889,4.0333 -2.5544,15.73 -2.5544,15.73 l -1.7477,8.3354 c 0,0 -1.6133,4.3022 -5.2432,2.5544 -3.6299,-1.7477 -31.325,-17.074 -31.325,-17.074 0,0 -3.361,0.26889 -2.8233,-2.42 0.53777,-2.6888 1.6133,-7.5287 1.8822,-8.2009 0.26888,-0.67221 2.0166,-6.1843 2.2855,-7.1254 0.26889,-0.9411 -0.94109,-4.571 0.53778,-4.571 1.4788,0 3.4955,0.67221 3.4955,0.67221 z"
       style="fill:#000000;fill-opacity:1" />
    <path
       inkscape:connector-curvature="0"
       id="path3825-0"
       d="m 188.08,421.2 27.023,15.73 c 0,0 2.6888,1.4789 1.0755,2.9577 -1.6133,1.4788 -5.3777,6.8565 -6.8565,7.9321 -1.4788,1.0755 -18.15,13.579 -24.872,14.116 -6.7221,0.53778 -24.065,1.21 -30.653,0.13443 -6.5876,-1.0755 -22.99,-5.5121 -28.502,-10.621 -5.5121,-5.1088 -17.881,-14.116 -19.091,-16.94 -1.21,-2.8233 -2.5544,-6.4532 -2.5544,-6.4532 0,0 -1.0755,-2.0166 0.40332,-2.6888 1.4789,-0.67221 2.6888,-1.21 5.6466,-1.8822 2.9577,-0.67221 26.485,-8.7387 26.485,-8.7387 0,0 2.42,-1.21 5.3777,0 2.9577,1.21 2.2855,1.4788 3.6299,3.4955 1.3444,2.0166 1.6133,4.0333 5.6466,5.1088 4.0332,1.0755 5.1088,2.1511 9.6798,2.2855 4.571,0.13443 6.991,0.53775 10.218,-0.26889 3.2266,-0.80667 5.3777,-1.21 7.3943,-2.9577 2.0166,-1.7477 3.4955,-3.6299 4.7055,-3.7644 1.21,-0.13443 2.1511,-0.13443 3.4955,0.53778 1.3444,0.67221 2.42,2.1511 2.42,2.1511 0,0 -1.4788,-0.26886 -0.67221,-0.13443 z"
       style="fill:#000000;fill-opacity:1" />
    <path
       inkscape:connector-curvature="0"
       id="path3827-1"
       d="m 200.86,338.65 33.61,3.7644 c 0,0 2.6888,-0.13443 2.6888,2.0166 0,2.1511 -2.2855,22.317 -2.2855,22.317 0,0 -0.40334,2.42 -3.0922,1.7477 -2.6888,-0.67221 -32.938,-5.781 -32.938,-5.781 0,0 -2.6888,-0.26889 -2.6888,-2.2855 0,-2.01661 1.7477,-20.032 1.7477,-20.032 0,0 -0.26888,-2.2855 1.0756,-2.2855 1.3444,0 1.8822,0.53778 1.8822,0.53778 z"
       style="fill:#000000;fill-opacity:1" />
    <path
       inkscape:connector-curvature="0"
       id="path3831-9"
       d="m 199.11,373.74 c 0,0 26.216,5.781 28.367,5.9154 2.1511,0.13446 4.3021,0.26889 4.9743,0.67221 0.67221,0.40332 2.0166,-0.26889 1.7478,2.42 -0.26889,2.6888 -1.3444,7.9321 -1.7478,9.5454 -0.40332,1.6133 -1.3444,3.0922 -2.2855,3.7644 -0.94109,0.67221 -3.7644,0.80664 -6.3188,0.26886 -2.5544,-0.53775 -17.881,-4.9743 -21.914,-5.9154 -4.0333,-0.94107 -8.4698,-1.3444 -8.7387,-2.6888 -0.26888,-1.3444 -0.80666,-3.361 -0.40334,-6.3188 0.40334,-2.9577 0.26889,-5.3777 0.67221,-6.4532 0.40334,-1.0755 0.80666,-2.8232 2.42,-2.5544 1.6133,0.26889 3.2266,1.3444 3.2266,1.3444 z"
       style="fill:#000000;fill-opacity:1" />
    <path
       inkscape:connector-curvature="0"
       id="path3833-2"
       d="m 193.73,399.69 33.476,9.6798 c 0,0 2.42,1.3444 1.6133,3.8988 -0.80664,2.5544 -3.2266,11.024 -5.3777,13.041 -2.1511,2.0166 -1.7477,3.0922 -2.9577,2.2855 -1.21,-0.80667 -6.8565,-4.0333 -11.024,-6.991 -4.1677,-2.9577 -12.234,-8.6042 -14.654,-8.8731 -2.42,-0.26889 -5.1088,-1.7477 -5.3777,-2.6888 -0.26888,-0.9411 -0.94109,-1.3444 -0.13444,-4.4366 0.80666,-3.0922 -0.26888,-4.571 1.3444,-5.2432 1.6133,-0.67221 3.0922,-0.67221 3.0922,-0.67221 z"
       style="fill:#000000;fill-opacity:1" />
    <path
       inkscape:connector-curvature="0"
       id="path3835-2"
       d="m 100.43,392.43 33.745,0.1344 c 0,0 1.21,-1.0755 2.1511,-0.40332 0.9411,0.67221 1.21,0.80667 1.4789,2.2855 0.26888,1.4788 0.40332,5.9154 0.40332,6.7221 0,0.80667 0.9411,2.2855 -1.4789,2.6888 -2.42,0.40332 -36.703,9.2765 -36.703,9.2765 0,0 -0.80665,0.9411 -0.80665,-2.5544 0,-3.4955 -0.26889,-5.2432 -0.26889,-7.932 0,-2.6888 -0.13444,-6.0499 0.26889,-7.1254 0.40332,-1.0755 0.53776,-2.8233 1.21,-3.0922 z"
       style="fill:#000000;fill-opacity:1" />
    <path
       inkscape:connector-curvature="0"
       id="path3837-6"
       d="m 105.81,362.85 c 0,0 10.755,0.13443 15.864,0.9411 5.1088,0.80664 6.991,1.7477 9.2765,1.8822 2.2855,0.13443 6.8565,0.53775 6.8565,0.53775 0,0 2.5544,0.26889 2.6888,2.1511 0.13443,1.8822 -0.13446,4.1677 -0.13446,6.7221 0,2.5544 -1.8822,4.8399 -1.8822,4.8399 0,0 -2.42,1.6133 -6.8565,1.3444 -4.4366,-0.26889 -4.9743,-0.26889 -9.8143,-0.53775 -4.8399,-0.26889 -9.9487,-0.26889 -11.293,-0.26889 l -6.7221,0 -2.6888,0 c 0,0 -2.5544,0.53775 -1.6133,-3.6299 0.94109,-4.1677 0.80665,-6.3188 1.3444,-8.2009 0.53777,-1.8822 0.13444,-3.361 1.21,-4.3022 1.0755,-0.9411 3.7644,-1.4788 3.7644,-1.4788 z"
       style="fill:#000000;fill-opacity:1" />
    <path
       inkscape:connector-curvature="0"
       id="path3839-2"
       d="m 114.28,325.07 c 0,0 10.486,2.2855 13.31,2.2855 2.8233,0 2.0166,-1.0755 4.4366,-0.26889 2.42,0.80664 4.0333,0.67221 5.781,1.3444 1.7477,0.67221 2.6888,1.3444 4.3021,1.3444 1.6133,0 2.5544,0.67221 2.42,4.4366 -0.13444,3.7644 -1.0755,5.3777 -1.0755,8.8732 0,3.4955 -1.3444,10.083 -1.3444,10.083 l -37.375,-1.8822 c 0,0 -1.21,-1.8822 0.53777,-5.1088 1.7477,-3.2266 2.0166,-5.6466 2.4199,-7.9321 0.40334,-2.2855 0.94109,-3.8988 1.8822,-5.1088 0.94109,-1.21 1.7477,-3.2266 2.0166,-4.1677 0.26889,-0.9411 0.67221,-4.0333 0.67221,-4.0333 l 2.0166,0.1344 z"
       style="fill:#000000;fill-opacity:1" />
    <path
       inkscape:connector-curvature="0"
       id="path3841-1"
       d="m 155.82,343.22 7.3943,7.5287 c 0,0 0.67221,0.40332 0.40334,3.4955 -0.26889,3.0922 -1.3444,8.201 -1.3444,8.201 0,0 0.94109,1.8822 -0.53778,1.7477 -1.4788,-0.13443 -4.9743,-1.3444 -5.6466,-2.2855 -0.67221,-0.9411 -3.0922,-2.2855 -3.361,-2.8233 -0.26888,-0.53778 -1.0755,-1.8822 -1.21,-2.42 -0.13446,-0.53778 -1.0756,-3.8988 -0.67221,-5.9154 0.40332,-2.0166 0.40332,-4.7055 1.4788,-5.9155 1.07548,-1.21 2.42,-1.7477 2.42,-1.7477 l 1.0755,0.1344 z"
       style="fill:#000000;fill-opacity:1" />
    <path
       inkscape:connector-curvature="0"
       id="path3843-3"
       d="m 153.13,372.4 5.6465,6.3188 c 0,0 0.80666,0.26889 0.80666,3.4955 0,3.22661 0.13444,5.3777 -1.0755,5.3777 -1.21,0 -4.1677,-0.9411 -5.2432,-2.0166 -1.0756,-1.0755 -3.4955,-1.8822 -4.1677,-3.2266 -0.67221,-1.3444 -1.6133,-2.6888 -1.0755,-4.9744 0.53778,-2.2855 1.4789,-4.3021 2.2855,-4.7054 0.80666,-0.40335 2.8233,-0.26889 2.8233,-0.26889 z"
       style="fill:#000000;fill-opacity:1" />
    <path
       inkscape:connector-curvature="0"
       id="path3845-8"
       d="m 149.9,397.54 c 0,0 2.5544,1.7477 3.8988,2.9577 1.3444,1.21 2.0166,1.3444 2.1511,4.3021 0.13444,2.9577 0.53777,5.9154 0,7.2599 -0.53777,1.3444 -0.26889,1.8822 -1.4788,1.8822 -1.21,0 -1.7478,-0.80667 -2.2855,-1.6133 -0.53777,-0.80664 -1.4789,-1.6133 -2.0166,-2.6888 -0.53778,-1.0755 -2.0166,-2.9577 -2.2855,-4.3022 -0.26889,-1.3444 -1.0756,-3.0921 -1.0756,-3.8988 0,-0.80664 0,-1.8822 0.53777,-2.6888 0.53778,-0.80664 1.7477,-1.4788 1.7477,-1.4788 l 0.8067,0.2689 z"
       style="fill:#000000;fill-opacity:1" />
    <path
       inkscape:connector-curvature="0"
       id="path3847-3"
       d="m 174.91,352.9 c 0,0 2.1511,-1.7477 3.4955,-1.7477 1.3444,0 3.2266,-0.13443 4.0332,-1.21 0.80667,-1.0755 3.2266,-2.2855 3.6299,-2.2855 0.40334,0 0.80666,0.13443 0.80666,1.8822 0,1.7477 -0.13444,4.0333 -0.40332,5.781 -0.26888,1.7477 -0.40334,3.8988 -0.40334,4.9743 0,1.0756 2.2855,0.40335 -0.53775,1.8822 -2.8233,1.4788 -7.1254,3.6299 -7.1254,3.6299 l -2.42,-0.1344 c 0,0 -1.3444,-0.67221 -1.4788,-1.7477 -0.13444,-1.0755 -0.26889,-2.42 -0.13444,-4.0333 0.13444,-1.6133 0.53777,-3.361 0.53777,-3.8988 l 0,-3.0922 z"
       style="fill:#000000;fill-opacity:1" />
    <path
       inkscape:connector-curvature="0"
       id="path3849-9"
       d="m 172.22,381.27 c 0,0 5.5121,-2.8233 7.7976,-3.2266 2.2855,-0.40332 2.6888,-0.13443 2.5544,1.8822 -0.13444,2.0166 -0.13444,3.8988 -0.13444,3.8988 0,0 0.40334,1.6133 -0.6722,2.1511 -1.0756,0.53778 -3.0922,2.0166 -4.571,2.2855 -1.4789,0.26889 -4.3021,1.6133 -5.2432,0.80664 -0.94109,-0.80664 -0.94109,-3.0922 -0.67221,-4.0332 0.26889,-0.9411 0.9411,-3.7644 0.9411,-3.7644 z"
       style="fill:#000000;fill-opacity:1" />
    <path
       inkscape:connector-curvature="0"
       id="path3851-5"
       d="m 171.01,404.53 5.6466,-4.4366 c 0,0 2.2855,-1.0755 2.5544,0.26889 0.26888,1.3444 -1.4788,4.571 -1.4788,4.571 0,0 -1.3444,7.2599 -2.5544,8.4698 -1.21,1.21 -2.8233,2.6888 -4.0333,2.9577 -1.21,0.26889 -2.1511,0.80664 -2.1511,-1.8822 0,-2.68884 0.67221,-7.7976 0.67221,-7.7976 l 1.3444,-2.1511 z"
       style="fill:#000000;fill-opacity:1" />
  </g>
</svg>
